<?xml version="1.0" encoding="UTF-8"?>
<svg xmlns="http://www.w3.org/2000/svg" xmlns:v="https://vecta.io/nano" width="602" height="162" fill="#fff">
  <path d="M48.562 58.243h-26.28l2.367-11.018H47.99l3.918-17.629H28.321l2.204-10.284h25.872l3.754-17.629H15.67L0 75.953h44.889l3.673-17.711zm18.609 17.71l7.672-36.564 17.058 36.972h12.977l15.916-74.679h-17.956l-7.754 36.401-16.976-36.89H65.13l-15.833 74.76h17.874zm88.796 0l3.673-17.711h-26.362l2.448-11.018h23.342l3.918-17.629h-23.587l2.204-10.284h25.872l3.754-17.629h-44.481l-15.67 74.271h44.889zm22.934 0l5.794-27.668h2.367l9.549 27.26h20.16l-11.1-30.198 1.795-.735a22.6 22.6 0 0 0 6.856-4.815 24.48 24.48 0 0 0 4.897-7.59 27.76 27.76 0 0 0 1.796-10.447 21.56 21.56 0 0 0-1.959-9.467 19.17 19.17 0 0 0-5.468-6.692c-2.452-1.768-5.224-3.043-8.162-3.754a51.5 51.5 0 0 0-17.711-.735 80.53 80.53 0 0 0-9.794 1.306h-1.877l-15.507 73.454 18.364.082zm22.036-47.745a8.16 8.16 0 0 1-2.53 2.775c-1.145.745-2.418 1.271-3.754 1.551-1.667.329-3.362.492-5.061.49h-1.877l3.102-14.446h.816 3.428a7.02 7.02 0 0 1 5.142 1.469 5.47 5.47 0 0 1 1.469 3.836c.106 1.48-.146 2.964-.735 4.326zm19.999 31.259a27.01 27.01 0 0 0 5.795 9.712 24.98 24.98 0 0 0 8.896 6.04 28.48 28.48 0 0 0 11.018 2.04c3.821.021 7.621-.558 11.263-1.714a32.64 32.64 0 0 0 10.12-5.387l.816-.653 7.428-35.013H249.91l-2.939 13.303 10.039 1.469-1.877 8.978a11.59 11.59 0 0 1-5.876 1.388 9.71 9.71 0 0 1-4.518-.804c-1.42-.625-2.669-1.581-3.644-2.788a16.32 16.32 0 0 1-3.183-10.855c-.075-4.151.531-8.287 1.796-12.242a23.91 23.91 0 0 1 4.488-8.162c1.799-2.158 4.058-3.887 6.611-5.06a28.89 28.89 0 0 1 15.344-1.143 20 20 0 0 1 4.489 1.306l2.612 1.306 7.508-16.323-2.693-1.469a36.12 36.12 0 0 0-7.1-2.122 51.91 51.91 0 0 0-26.118 1.714c-4.995 1.73-9.559 4.514-13.385 8.162a41.38 41.38 0 0 0-8.977 14.609c-2.33 6.572-3.436 13.515-3.265 20.486a37.05 37.05 0 0 0 1.714 13.222zm70.759 16.486l15.752-74.271H288.92l-15.67 74.271h18.445zm38.443-17.384a9.47 9.47 0 0 1-3.347 1.143c-2.945.492-5.951.492-8.896 0a26.03 26.03 0 0 1-3.999-.979c-1.113-.306-2.204-.687-3.265-1.143l-2.203-1.143-2.53-1.551-9.386 16.323 2.448 1.388c1.145.652 2.347 1.198 3.591 1.632a31.49 31.49 0 0 0 5.06 1.469 57.18 57.18 0 0 0 5.958.979c2.283.167 4.574.167 6.856 0a50.27 50.27 0 0 0 12.079-1.306 25.87 25.87 0 0 0 10.284-3.754c2.848-2.108 5.098-4.92 6.529-8.162a25.31 25.31 0 0 0 1.633-10.855 19.99 19.99 0 0 0-2.041-9.467 23.18 23.18 0 0 0-5.142-6.366 36.24 36.24 0 0 0-6.202-4.489l-5.714-3.428a16.99 16.99 0 0 1-3.836-3.183 4.08 4.08 0 0 1-.822-1.364c-.182-.504-.263-1.039-.238-1.575a4.41 4.41 0 0 1 .571-2.204 5.21 5.21 0 0 1 1.632-1.632 11.02 11.02 0 0 1 3.02-1.061c3.62-.718 7.365-.465 10.855.735a24.48 24.48 0 0 1 4.897 2.122l2.53 1.632 9.386-16.323-2.449-1.469a19.82 19.82 0 0 0-4.162-1.877c-1.551-.49-3.183-.979-4.979-1.387s-3.509-.49-5.468-.979c-5.454-.593-10.968-.29-16.323.898-3.268.81-6.346 2.252-9.06 4.244a21.22 21.22 0 0 0-6.284 7.59 23.74 23.74 0 0 0-2.285 10.937c-.095 3.379.604 6.734 2.04 9.794a23.27 23.27 0 0 0 5.142 6.693 34.19 34.19 0 0 0 6.203 4.652c2.04 1.143 3.999 2.367 5.713 3.428a17.69 17.69 0 0 1 3.917 3.101c.323.336.576.732.745 1.167a3.51 3.51 0 0 1 .235 1.363c.066.83-.134 1.659-.571 2.367-.477.885-1.219 1.598-2.122 2.04zm38.766 17.384l15.67-74.271h-18.445l-15.67 74.271h18.445zm25.137 0l7.672-36.564 17.058 36.972h12.977l15.915-74.679h-17.874l-7.754 36.401-16.976-36.89h-12.977l-15.915 74.76h17.874zm48.317-29.3a37.04 37.04 0 0 0 2.041 12.814 29.54 29.54 0 0 0 5.794 9.712c2.507 2.618 5.538 4.676 8.896 6.04a28.74 28.74 0 0 0 11.019 2.04c3.876.045 7.734-.534 11.426-1.714a33.22 33.22 0 0 0 10.202-5.387l.816-.653 7.345-35.013h-26.525l-2.856 13.304 9.957 1.469-1.877 8.978a11.43 11.43 0 0 1-5.877 1.387 9.8 9.8 0 0 1-4.513-.813 9.79 9.79 0 0 1-3.648-2.778c-2.265-3.151-3.388-6.98-3.183-10.855-.076-4.151.531-8.287 1.795-12.242a23.92 23.92 0 0 1 4.489-8.162c1.799-2.158 4.058-3.887 6.611-5.06a29.13 29.13 0 0 1 15.425-1.224 19.09 19.09 0 0 1 4.408 1.306l2.693 1.306 7.427-16.323-2.612-1.387a39.04 39.04 0 0 0-7.182-2.122 51.58 51.58 0 0 0-26.362 1.714 36.24 36.24 0 0 0-13.385 8.162c-4.072 4.29-7.164 9.414-9.059 15.017-2.285 6.583-3.39 13.518-3.265 20.486zM47.337 140.551a30.32 30.32 0 0 1-4.979 2.04c-2.09.622-4.268.898-6.448.816a11.42 11.42 0 0 1-4.909-.873 11.43 11.43 0 0 1-4.069-2.881c-2.465-3.154-3.685-7.105-3.428-11.1-.091-4.012.488-8.012 1.714-11.834a24.48 24.48 0 0 1 4.407-8.162 19.59 19.59 0 0 1 6.448-5.142 25.62 25.62 0 0 1 14.528-1.305c1.332.261 2.622.7 3.836 1.305l2.775 1.551 7.345-16.813-2.53-1.143c-2.187-.993-4.49-1.706-6.856-2.122a48.97 48.97 0 0 0-25.056 1.714 35.57 35.57 0 0 0-13.14 8.162 42.1 42.1 0 0 0-8.814 14.691 56.23 56.23 0 0 0-3.428 20.731A39.5 39.5 0 0 0 6.12 142.02a27.26 27.26 0 0 0 5.223 9.875 25.96 25.96 0 0 0 9.059 6.775c3.864 1.658 8.039 2.465 12.242 2.366a32.06 32.06 0 0 0 17.629-4.652l1.306-.816v-17.302l-4.244 2.285zm70.678-27.097c.128-4.422-.478-8.835-1.795-13.058a26.35 26.35 0 0 0-5.224-9.305c-2.253-2.477-5.045-4.404-8.161-5.632a30.93 30.93 0 0 0-10.773-1.387c-5.541-.059-11.009 1.259-15.915 3.836a35.26 35.26 0 0 0-11.998 10.284 48.97 48.97 0 0 0-7.59 14.936 62.19 62.19 0 0 0-2.612 18.037 32.65 32.65 0 0 0 7.019 22.118 25.79 25.79 0 0 0 9.089 5.975 25.8 25.8 0 0 0 10.744 1.697c5.321.165 10.599-1.014 15.344-3.428a36.72 36.72 0 0 0 11.753-10.447 48.98 48.98 0 0 0 7.509-15.099c1.783-6.012 2.663-12.256 2.611-18.527zm-36.4 29.953a6.77 6.77 0 0 1-3.625-.523 6.78 6.78 0 0 1-2.823-2.333c-1.457-3.047-2.05-6.434-1.714-9.794-.02-3.884.474-7.754 1.469-11.508a34.29 34.29 0 0 1 3.836-9.468 22.2 22.2 0 0 1 5.55-6.039 11.26 11.26 0 0 1 6.529-2.041c1.145-.068 2.291.124 3.351.563a7.6 7.6 0 0 1 2.77 1.968 14.61 14.61 0 0 1 2.367 9.385 48.96 48.96 0 0 1-1.387 11.263 34.36 34.36 0 0 1-3.754 9.713 21.31 21.31 0 0 1-5.55 6.366c-1.982 1.61-4.465 2.477-7.019 2.448zm98.509-57.947l-24.158 32.565-.898 1.632-11.1-34.197h-15.67l-15.67 74.271h17.874l7.509-35.503 8.161 22.852h7.427l16.976-22.362-7.427 35.013h18.445l15.752-74.271h-17.221zm75.089 0l-24.158 32.565-.898 1.632-11.1-34.197h-15.588l-15.752 74.271h17.955l7.427-35.503 8.162 22.852h7.427l16.976-22.362-7.345 35.013h18.445l15.67-74.271h-17.221zm76.719 0H314.14l-9.713 45.542c-.528 3.542-1.962 6.887-4.162 9.712-.938.875-2.043 1.551-3.25 1.986a9.46 9.46 0 0 1-3.769.544 8.16 8.16 0 0 1-5.387-1.387c-.534-.592-.934-1.292-1.174-2.052a5.54 5.54 0 0 1-.213-2.355 27.41 27.41 0 0 1 .734-5.469l9.713-46.521h-18.445l-9.713 45.379c-.326 1.632-.571 3.183-.734 4.652a38.52 38.52 0 0 0 0 4.325c-.015 2.768.398 5.521 1.224 8.162a18.1 18.1 0 0 0 4.326 6.937 19.49 19.49 0 0 0 7.508 4.408c3.409 1.047 6.963 1.543 10.529 1.469a39.12 39.12 0 0 0 11.181-1.469 21.63 21.63 0 0 0 8.978-4.979c2.61-2.503 4.74-5.463 6.284-8.733 1.869-4.007 3.24-8.228 4.081-12.569l9.794-47.582zm43.503 0l-7.753 36.401-16.976-36.891h-12.977l-15.916 74.761h17.874l7.672-36.564 17.14 36.972h12.895l15.915-74.679h-17.874zm25.382 0l-15.752 74.271h18.527l15.671-74.271h-18.446zm77.698 0h-56.478l-3.755 17.629h19.017l-11.916 56.642h18.445l11.998-56.642h19.098l3.591-17.629zm3.102 0l-15.752 74.271h18.527l15.67-74.271h-18.445zm32.321 56.56l2.367-11.018h23.424l3.836-17.629h-23.587l2.204-10.284h25.872l3.754-17.629h-44.481l-15.67 74.271h44.971l3.591-17.711h-26.281zm71.984-21.547c-1.946-1.633-4.021-3.106-6.203-4.407l-5.713-3.428c-1.429-.866-2.721-1.939-3.836-3.183a4.08 4.08 0 0 1-1.061-2.938 3.67 3.67 0 0 1 .571-2.204 5.23 5.23 0 0 1 1.632-1.632 11.02 11.02 0 0 1 3.02-1.061c3.62-.718 7.365-.465 10.855.735a24.41 24.41 0 0 1 4.897 2.122l2.53 1.632L602 89.786l-2.448-1.469c-1.32-.766-2.715-1.395-4.163-1.877-1.551-.49-3.183-.979-5.06-1.387a54.89 54.89 0 0 0-5.632-.816 50.52 50.52 0 0 0-16.323.898 25.79 25.79 0 0 0-9.059 4.244c-2.662 2.002-4.814 4.602-6.285 7.59-1.62 3.412-2.404 7.161-2.285 10.936-.094 3.38.604 6.734 2.041 9.794a22.19 22.19 0 0 0 5.141 6.693 34.19 34.19 0 0 0 6.203 4.652l5.713 3.428a17.72 17.72 0 0 1 3.918 3.101c.323.336.576.733.744 1.167s.248.898.235 1.363c.066.83-.134 1.659-.571 2.367-.461.729-1.109 1.321-1.877 1.714-1.034.588-2.169.975-3.346 1.143-2.945.491-5.952.491-8.897 0a26.07 26.07 0 0 1-3.999-.98c-1.113-.305-2.204-.687-3.264-1.142l-2.204-1.143-2.53-1.551-9.386 16.324 2.449 1.387c1.145.652 2.347 1.198 3.591 1.633 1.642.63 3.335 1.121 5.06 1.469a57.12 57.12 0 0 0 5.958.979 46.91 46.91 0 0 0 6.856.408c4.064.055 8.12-.384 12.079-1.306 3.559-.732 6.924-2.206 9.875-4.325 2.848-2.108 5.099-4.921 6.53-8.162a25.3 25.3 0 0 0 2.285-11.181 19.99 19.99 0 0 0-2.041-9.468 24.47 24.47 0 0 0-5.386-5.795z"></path>
</svg>
