<?xml version="1.0" encoding="UTF-8"?>
<svg xmlns="http://www.w3.org/2000/svg" width="245" height="17" viewBox="0 0 245 17" fill="none">
  <path d="M10.4983 12.2274H4.81685L5.32853 9.84543H10.3748L11.2217 6.0343H6.12252L6.59891 3.81113H12.1921L13.0037 0H3.38768L0 16.0562H9.70428L10.4983 12.2274Z" fill="#A2A7B1"></path>
  <path d="M14.5213 16.162L16.1798 8.25746L19.8675 16.2503H22.6729L26.1135 0.105865H22.2318L20.5556 7.97515L16.8856 0H14.0802L10.6572 16.162H14.5213Z" fill="#A2A7B1"></path>
  <path d="M33.718 16.0562L34.5119 12.2274H28.8129L29.3422 9.84543H34.3884L35.2353 6.0343H30.1362L30.6126 3.81113H36.2058L37.0174 0H27.4013L24.0137 16.0562H33.718Z" fill="#A2A7B1"></path>
  <path d="M38.676 16.2758L39.9287 10.2944H40.4404L42.5048 16.1876H46.8629L44.4633 9.65926L44.8514 9.50046C45.406 9.24883 45.9087 8.89577 46.3335 8.45946C46.7851 7.98288 47.1441 7.42644 47.3922 6.81855C47.6655 6.09767 47.7973 5.33087 47.7804 4.5601C47.7961 3.85459 47.6513 3.15474 47.3569 2.51338C47.0781 1.94745 46.6737 1.45262 46.1747 1.06656C45.6447 0.684324 45.0455 0.408676 44.4103 0.254931C43.1528 -0.0188954 41.8574 -0.0726236 40.5816 0.0961333C39.8707 0.146823 39.1636 0.241102 38.4643 0.37844H38.0584L34.7061 16.2582L38.676 16.2758ZM43.4399 5.95399C43.3067 6.19375 43.1194 6.39916 42.8929 6.55389C42.6455 6.71497 42.3703 6.82865 42.0813 6.88913C41.721 6.96013 41.3546 6.99559 40.9874 6.99499H40.5816L41.252 3.87198H41.4285H42.1695C42.5674 3.82702 42.967 3.94118 43.2811 4.18958C43.4907 4.41422 43.6046 4.71166 43.5987 5.01885C43.6218 5.3388 43.5673 5.65959 43.4399 5.95399Z" fill="#A2A7B1"></path>
  <path d="M47.7632 12.7808C48.0279 13.5612 48.4549 14.2768 49.0159 14.8805C49.5546 15.4502 50.2109 15.8957 50.9391 16.1861C51.6961 16.4894 52.5057 16.6394 53.3211 16.6272C54.1471 16.6317 54.9687 16.5067 55.756 16.2567C56.5483 16.0006 57.289 15.6064 57.9439 15.0922L58.1203 14.951L59.7259 7.3817H54.0269L53.3917 10.2577L55.5619 10.5753L55.1561 12.5161C54.7666 12.7266 54.3282 12.8301 53.8857 12.8161C53.551 12.837 53.2161 12.7774 52.9091 12.6424C52.6022 12.5073 52.332 12.3007 52.1213 12.0398C51.6195 11.3646 51.3755 10.5323 51.4332 9.69308C51.4169 8.79558 51.548 7.90149 51.8213 7.04646C52.026 6.4004 52.3558 5.80089 52.7918 5.28205C53.1807 4.81546 53.669 4.4417 54.2209 4.18811C55.284 3.80745 56.4303 3.72209 57.538 3.94109C57.8714 3.99692 58.1971 4.09167 58.5085 4.2234L59.0731 4.5057L60.6963 0.976874L60.1141 0.65928C59.6195 0.454072 59.1051 0.300345 58.579 0.200532C56.6962 -0.160264 54.7524 -0.0326998 52.9329 0.571059C51.8531 0.945089 50.8663 1.54681 50.0393 2.33547C49.1789 3.24118 48.5178 4.31704 48.0984 5.49377C47.5949 6.91456 47.3557 8.41553 47.3927 9.92246C47.3423 10.8898 47.4679 11.8583 47.7632 12.7808Z" fill="#A2A7B1"></path>
  <path d="M63.0598 16.0562L66.4652 0H62.4599L59.0723 16.0562H63.0598Z" fill="#A2A7B1"></path>
  <path d="M71.3709 12.6617C71.1475 12.7887 70.902 12.8725 70.6475 12.9087C70.0109 13.015 69.361 13.015 68.7243 12.9087C68.431 12.861 68.1419 12.7902 67.8598 12.697C67.6191 12.6309 67.3833 12.5483 67.154 12.4499L66.6776 12.2029L66.1306 11.8677L64.1016 15.3965L64.6309 15.6965C64.8785 15.8373 65.1383 15.9554 65.4072 16.0493C65.7624 16.1856 66.1283 16.2918 66.5012 16.3669C66.9265 16.4602 67.3564 16.5308 67.7892 16.5787C68.2826 16.6148 68.7779 16.6148 69.2713 16.5787C70.1499 16.5905 71.0268 16.4957 71.8826 16.2964C72.6731 16.1875 73.4311 15.9108 74.1058 15.4847C74.7215 15.0291 75.208 14.421 75.5173 13.7203C75.8053 12.9733 75.9257 12.1723 75.8702 11.3736C75.8931 10.6656 75.7416 9.96272 75.4291 9.32693C75.1431 8.80589 74.7667 8.33988 74.3175 7.95068C73.9061 7.58076 73.4566 7.25547 72.9766 6.98026L71.7415 6.2392C71.4327 6.05188 71.1533 5.82001 70.9122 5.55108C70.8341 5.46546 70.7737 5.36529 70.7343 5.2563C70.695 5.14732 70.6775 5.03164 70.6828 4.91589C70.6816 4.74902 70.7242 4.58474 70.8063 4.4395C70.8962 4.29703 71.0167 4.17645 71.1592 4.08662C71.3645 3.97879 71.5844 3.90152 71.8121 3.85724C72.5946 3.70201 73.4042 3.7568 74.1587 4.01604C74.5273 4.12993 74.8823 4.28375 75.2174 4.47479L75.7643 4.82767L77.7934 1.29884L77.2641 0.981247C76.9808 0.811782 76.6788 0.675608 76.3642 0.575432C76.029 0.469567 75.6761 0.363702 75.2879 0.275481C74.8998 0.187261 74.5292 0.169617 74.1058 0.0637517C72.9268 -0.0645097 71.7348 0.00105201 70.577 0.257837C69.8705 0.432907 69.2052 0.744602 68.6185 1.17533C68.0431 1.60812 67.5777 2.17024 67.2599 2.81624C66.9095 3.55384 66.7402 4.36438 66.7658 5.18055C66.7454 5.91109 66.8964 6.63626 67.2069 7.29785C67.4861 7.84387 67.8629 8.33421 68.3185 8.74467C68.7259 9.12966 69.1758 9.46707 69.6595 9.75039C70.1006 9.99741 70.524 10.2621 70.8946 10.4914C71.2071 10.6738 71.4923 10.8995 71.7415 11.1619C71.8113 11.2345 71.866 11.3202 71.9023 11.4141C71.9387 11.508 71.956 11.6082 71.9532 11.7089C71.9674 11.8882 71.9242 12.0675 71.8297 12.2206C71.7266 12.4119 71.5662 12.5661 71.3709 12.6617Z" fill="#A2A7B1"></path>
  <path d="M79.7513 16.0562L83.1389 0H79.1514L75.7637 16.0562H79.7513Z" fill="#A2A7B1"></path>
  <path d="M85.1854 16.162L86.8439 8.25746L90.5315 16.2503H93.337L96.7776 0.105865H92.9135L91.2373 7.97515L87.5673 0H84.7619L81.3213 16.162H85.1854Z" fill="#A2A7B1"></path>
  <path d="M95.631 10.0194C95.6139 10.9615 95.7632 11.8993 96.0721 12.7895C96.3505 13.5636 96.7759 14.2765 97.3248 14.8892C97.8667 15.4551 98.5221 15.9001 99.248 16.1949C100.005 16.4968 100.815 16.6467 101.63 16.636C102.468 16.6457 103.302 16.5206 104.1 16.2654C104.898 16.0089 105.644 15.6148 106.306 15.1009L106.482 14.9598L108.07 7.39043H102.336L101.718 10.2664L103.871 10.584L103.465 12.5249C103.076 12.737 102.637 12.8406 102.195 12.8248C101.86 12.8443 101.526 12.7841 101.219 12.6491C100.912 12.5141 100.642 12.3083 100.43 12.0485C99.9405 11.3673 99.6978 10.5395 99.742 9.70182C99.7258 8.80431 99.8569 7.91023 100.13 7.0552C100.335 6.40913 100.665 5.80963 101.101 5.29078C101.49 4.82419 101.978 4.45044 102.53 4.19684C103.597 3.80967 104.749 3.71823 105.865 3.93218C106.192 3.98758 106.512 4.08237 106.817 4.21449L107.4 4.49679L109.005 0.967966L108.441 0.668015C107.939 0.465764 107.419 0.312143 106.888 0.209267C104.988 -0.164032 103.024 -0.0363352 101.189 0.579794C100.107 0.949747 99.1195 1.55198 98.2952 2.34421C97.4148 3.27165 96.7465 4.3794 96.3367 5.59073C95.8429 7.01397 95.604 8.51317 95.631 10.0194Z" fill="#A2A7B1"></path>
  <path d="M125.09 12.2259C124.745 12.4046 124.385 12.5522 124.014 12.667C123.562 12.8014 123.091 12.861 122.62 12.8434C122.257 12.8594 121.895 12.7949 121.559 12.6546C121.224 12.5143 120.923 12.3016 120.679 12.0318C120.146 11.3499 119.883 10.4959 119.938 9.6322C119.919 8.76472 120.044 7.90004 120.309 7.07379C120.511 6.43032 120.834 5.83144 121.262 5.30938C121.642 4.84413 122.117 4.46521 122.655 4.1978C123.653 3.80147 124.744 3.70339 125.796 3.91549C126.084 3.97191 126.363 4.06686 126.625 4.1978L127.225 4.53304L128.813 0.898344L128.266 0.651326C127.794 0.436712 127.296 0.282581 126.784 0.192579C124.977 -0.156892 123.11 -0.029183 121.367 0.563107C120.303 0.935831 119.333 1.5382 118.527 2.32752C117.681 3.24442 117.032 4.32543 116.621 5.50347C116.095 6.93751 115.843 8.45792 115.88 9.98508C115.85 10.8481 115.951 11.7108 116.18 12.5435C116.405 13.3255 116.79 14.0524 117.309 14.6784C117.847 15.3046 118.515 15.8047 119.268 16.1429C120.103 16.5014 121.006 16.6759 121.914 16.6546C123.255 16.695 124.579 16.3457 125.726 15.6488L126.008 15.4724V11.7318L125.09 12.2259Z" fill="#A2A7B1"></path>
  <path d="M140.37 6.35973C140.397 5.40371 140.266 4.44974 139.981 3.53666C139.746 2.79622 139.362 2.11173 138.852 1.52523C138.365 0.989696 137.761 0.573179 137.088 0.307786C136.335 0.0712072 135.547 -0.0303418 134.759 0.00783529C133.561 -0.00487174 132.379 0.280081 131.318 0.837111C130.296 1.37239 129.41 2.13253 128.724 3.06027C127.996 4.03431 127.441 5.12659 127.084 6.28915C126.705 7.55416 126.515 8.86805 126.519 10.1885C126.422 11.9144 126.962 13.6158 128.036 14.9701C128.592 15.5354 129.262 15.9758 130.001 16.2618C130.741 16.5478 131.532 16.6729 132.324 16.6286C133.474 16.6644 134.615 16.4095 135.641 15.8876C136.641 15.327 137.508 14.5565 138.182 13.6291C138.907 12.6431 139.457 11.5387 139.805 10.3649C140.19 9.06519 140.381 7.71539 140.37 6.35973ZM132.5 12.8351C132.234 12.8701 131.963 12.831 131.717 12.722C131.471 12.6131 131.26 12.4386 131.106 12.2176C130.791 11.559 130.663 10.8267 130.736 10.1003C130.731 9.26063 130.838 8.42408 131.053 7.61246C131.226 6.89263 131.506 6.20273 131.883 5.56574C132.198 5.05977 132.605 4.61699 133.083 4.26007C133.496 3.97026 133.989 3.81611 134.494 3.81897C134.742 3.80421 134.989 3.84576 135.219 3.9405C135.448 4.03523 135.652 4.18069 135.817 4.36594C136.214 4.9645 136.394 5.68016 136.329 6.39502C136.324 7.21553 136.223 8.03264 136.029 8.82991C135.867 9.56696 135.593 10.275 135.217 10.9296C134.913 11.4638 134.505 11.9317 134.018 12.3058C133.589 12.654 133.052 12.8413 132.5 12.8351Z" fill="#A2A7B1"></path>
  <path d="M153.797 0L148.574 7.04001L148.38 7.3929L145.98 0H142.593L139.205 16.0562H143.069L144.692 8.38097L146.457 13.3213H148.062L151.732 8.48683L150.127 16.0562H154.114L157.52 0H153.797Z" fill="#A2A7B1"></path>
  <path d="M170.03 0L164.808 7.04001L164.613 7.3929L162.214 0H158.844L155.438 16.0562H159.32L160.926 8.38097L162.69 13.3213H164.296L167.966 8.48683L166.378 16.0562H170.365L173.753 0H170.03Z" fill="#A2A7B1"></path>
  <path d="M186.616 0H182.769L180.67 9.84543C180.555 10.6111 180.245 11.3343 179.77 11.9451C179.567 12.1343 179.328 12.2803 179.067 12.3744C178.806 12.4684 178.529 12.5084 178.252 12.4921C177.841 12.5315 177.429 12.4254 177.088 12.1921C176.972 12.0642 176.886 11.9128 176.834 11.7484C176.782 11.584 176.766 11.4104 176.788 11.2393C176.801 10.8409 176.854 10.4449 176.947 10.0572L179.046 0H175.059L172.959 9.81014C172.888 10.163 172.836 10.4983 172.8 10.8159C172.783 11.1273 172.783 11.4395 172.8 11.751C172.797 12.3493 172.886 12.9444 173.065 13.5154C173.258 14.08 173.578 14.593 174 15.0152C174.462 15.451 175.017 15.7767 175.623 15.9679C176.36 16.1944 177.129 16.3016 177.899 16.2855C178.716 16.2971 179.531 16.1901 180.317 15.9679C181.041 15.7701 181.706 15.401 182.258 14.8917C182.822 14.3505 183.282 13.7107 183.616 13.0037C184.02 12.1374 184.316 11.2249 184.498 10.2865L186.616 0Z" fill="#A2A7B1"></path>
  <path d="M196.02 0.105866L194.344 7.97515L190.674 0H187.868L184.428 16.162H188.292L189.95 8.25746L193.656 16.2503H196.443L199.884 0.105866H196.02Z" fill="#A2A7B1"></path>
  <path d="M201.508 0L198.103 16.0562H202.108L205.495 0H201.508Z" fill="#A2A7B1"></path>
  <path d="M218.305 0H206.095L205.283 3.81113H209.394L206.818 16.0562H210.806L213.4 3.81113H217.528L218.305 0Z" fill="#A2A7B1"></path>
  <path d="M218.975 0L215.569 16.0562H219.575L222.962 0H218.975Z" fill="#A2A7B1"></path>
  <path d="M225.962 12.2274L226.474 9.84543H231.538L232.367 6.0343H227.268L227.744 3.81113H233.338L234.149 0H224.533L221.146 16.0562H230.867L231.644 12.2274H225.962Z" fill="#A2A7B1"></path>
  <path d="M241.524 7.89712C241.103 7.54412 240.654 7.2255 240.183 6.94434L238.948 6.20328C238.639 6.01596 238.359 5.78409 238.118 5.51516C238.04 5.42954 237.98 5.32937 237.94 5.22039C237.901 5.1114 237.884 4.99573 237.889 4.87997C237.879 4.7121 237.922 4.54529 238.012 4.40358C238.102 4.26111 238.223 4.14054 238.365 4.0507C238.571 3.94287 238.79 3.8656 239.018 3.82132C239.801 3.66609 240.61 3.72088 241.365 3.98012C241.733 4.09401 242.088 4.24784 242.423 4.43887L242.97 4.79175L244.999 1.26292L244.47 0.94533C244.185 0.77971 243.883 0.643728 243.57 0.539514C243.235 0.433649 242.882 0.327784 242.476 0.239563C242.074 0.159723 241.668 0.100831 241.259 0.0631225C240.08 -0.064189 238.888 0.0013636 237.73 0.257208C237.024 0.432277 236.358 0.743971 235.772 1.1747C235.196 1.60748 234.731 2.16961 234.413 2.81561C234.063 3.55321 233.893 4.36375 233.919 5.17992C233.899 5.91046 234.05 6.63563 234.36 7.29722C234.635 7.84614 235.012 8.33728 235.472 8.74404C235.879 9.12903 236.329 9.46644 236.813 9.74976L238.048 10.4908C238.36 10.6732 238.645 10.8989 238.895 11.1613C238.964 11.2338 239.019 11.3196 239.055 11.4135C239.092 11.5074 239.109 11.6076 239.106 11.7083C239.121 11.8876 239.077 12.0668 238.983 12.2199C238.883 12.3776 238.743 12.5055 238.577 12.5905C238.354 12.7175 238.108 12.8013 237.854 12.8375C237.217 12.9438 236.567 12.9438 235.93 12.8375C235.637 12.7898 235.348 12.719 235.066 12.6258C234.825 12.5597 234.589 12.4771 234.36 12.3787L233.884 12.1317L233.337 11.7965L231.308 15.3253L231.837 15.6253C232.085 15.7661 232.344 15.8842 232.613 15.9781C232.968 16.1144 233.334 16.2206 233.707 16.2957C234.133 16.389 234.562 16.4596 234.995 16.5075C235.486 16.573 235.982 16.6025 236.477 16.5957C237.356 16.6075 238.233 16.5127 239.089 16.3134C239.858 16.155 240.586 15.8364 241.224 15.3782C241.839 14.9226 242.326 14.3145 242.635 13.6138C242.982 12.8562 243.151 12.0294 243.129 11.1966C243.152 10.4885 243.001 9.78564 242.688 9.14986C242.37 8.67191 241.977 8.24881 241.524 7.89712Z" fill="#A2A7B1"></path>
</svg>
