<?xml version="1.0" encoding="UTF-8"?>
<svg xmlns="http://www.w3.org/2000/svg" width="19" height="201" viewBox="0 0 19 201" fill="none">
  <line opacity="0.2" x1="9.5" y1="20" x2="9.49999" y2="164" stroke="white"></line>
  <path fill-rule="evenodd" clip-rule="evenodd" d="M0 184.365C0 179.193 4.19266 175 9.36458 175C14.5365 175 18.7292 179.193 18.7292 184.365V191.615C18.7292 196.786 14.5365 200.979 9.36458 200.979C4.19266 200.979 0 196.786 0 191.615V184.365ZM9.36458 176.812C5.19368 176.812 1.8125 180.194 1.8125 184.365V191.615C1.8125 195.786 5.19368 199.167 9.36458 199.167C13.5355 199.167 16.9167 195.786 16.9167 191.615V184.365C16.9167 180.194 13.5355 176.812 9.36458 176.812Z" fill="white"></path>
  <path fill-rule="evenodd" clip-rule="evenodd" d="M9.36458 180.438C9.86508 180.438 10.2708 180.843 10.2708 181.344V183.76C10.2708 184.261 9.86508 184.667 9.36458 184.667C8.86409 184.667 8.45833 184.261 8.45833 183.76V181.344C8.45833 180.843 8.86409 180.438 9.36458 180.438Z" fill="white"></path>
</svg>
